<svg xmlns="http://www.w3.org/2000/svg" width="104" height="64" fill="none"><path fill="url(#a)" d="M8.834 20.345c.715-3.373 1.073-5.059 2.254-6.141 1.18-1.082 2.891-1.292 6.313-1.71l74.61-9.135c3.546-.434 5.318-.65 5.999.399.68 1.05-.243 2.579-2.088 5.637l-15.216 25.23c-2.28 3.779-3.419 5.668-5.25 6.702s-4.038 1.034-8.45 1.034H11.57c-3.422 0-5.134 0-6.034-1.111-.9-1.112-.546-2.786.164-6.134z"/><path fill="#000" d="M58.802 37.346a.55.55 0 0 1-.454-.199.7.7 0 0 1-.107-.54l.561-2.76q.054-.312.187-.512.16-.227.348-.398l6.84-6.087h-5.104a.52.52 0 0 1-.454-.228.72.72 0 0 1-.08-.512l.535-2.816a.79.79 0 0 1 .32-.512q.267-.228.535-.228h11.303q.266 0 .428.228.16.199.107.512l-.588 3.015q-.08.427-.508.768l-6.6 5.974h5.611q.294 0 .455.227a.58.58 0 0 1 .08.513l-.561 2.816a.95.95 0 0 1-.294.54.82.82 0 0 1-.535.2zm7.59-16.925q-.429 0-.348-.456a.7.7 0 0 1 .214-.37l3.18-3.27q.347-.342.56-.427.215-.114.535-.114h4.25q.454 0 .4.569a.5.5 0 0 1-.214.341l-4.382 3.271a4 4 0 0 1-.535.342q-.24.114-.641.114zM48.22 37.63q-1.23 0-2.218-.397a3.7 3.7 0 0 1-1.577-1.223q-.614-.826-.855-2.077-.213-1.252.054-2.93.106-.626.187-1.081.106-.455.24-1.053.375-1.592.99-2.816.64-1.252 1.522-2.076a6.2 6.2 0 0 1 1.951-1.252 5.8 5.8 0 0 1 2.298-.455q1.23 0 2.191.426.99.399 1.497 1.081l1.149-5.888a.82.82 0 0 1 .294-.512.76.76 0 0 1 .534-.228h4.116q.267 0 .427.228.188.199.134.512l-3.741 18.718a.9.9 0 0 1-.321.54q-.24.2-.508.2H52.79a.55.55 0 0 1-.455-.2.7.7 0 0 1-.107-.54l.16-.797a7.1 7.1 0 0 1-1.763 1.337q-.935.484-2.405.484m2.432-4.437q.694 0 1.149-.313.48-.312.775-.825a4 4 0 0 0 .48-1.137q.135-.627.215-1.081.106-.456.187-1.053.106-.598 0-1.052a1.32 1.32 0 0 0-.455-.74q-.346-.285-.988-.285-.669 0-1.15.313-.454.285-.748.825-.267.513-.454 1.195-.106.427-.214.91a10 10 0 0 0-.16.91 5.7 5.7 0 0 0-.027 1.224q.053.511.374.825.347.284 1.016.284M34.211 37.63q-2.217 0-3.74-.739t-2.219-2.162q-.694-1.45-.4-3.47.08-.597.213-1.309.134-.711.294-1.308.562-2.05 1.63-3.47a6.8 6.8 0 0 1 2.753-2.163q1.71-.74 4.062-.74 2.138 0 3.66.74 1.524.74 2.272 2.162t.454 3.47q-.107.598-.24 1.31-.134.71-.294 1.308-.508 2.02-1.55 3.47-1.043 1.424-2.726 2.162-1.683.74-4.169.74m.535-4.01q.989 0 1.496-.626.508-.626.829-1.877.107-.427.24-1.167.16-.74.214-1.166.187-1.224-.053-1.85-.214-.653-1.203-.653-.962 0-1.496.654-.508.626-.802 1.849-.106.426-.267 1.166-.16.74-.214 1.167-.161 1.251.053 1.877.215.626 1.203.626m.668-13.2q-.427 0-.348-.455a.7.7 0 0 1 .214-.37l3.18-3.27q.348-.342.562-.427.213-.114.534-.114h4.249q.454 0 .4.569a.5.5 0 0 1-.213.341l-4.383 3.271a4 4 0 0 1-.534.342q-.24.114-.641.114zM12.788 37.346a.63.63 0 0 1-.481-.199.7.7 0 0 1-.107-.54l1.202-6.03-.721.284q-.24.085-.321.085a.49.49 0 0 1-.374-.142q-.107-.17-.054-.427l.508-2.617q.054-.37.24-.57.188-.198.535-.312l1.016-.398 1.683-8.307a.82.82 0 0 1 .294-.512.76.76 0 0 1 .535-.227h4.436q.267 0 .427.227.188.2.134.512l-1.203 5.86 4.196-1.621q.24-.085.347-.085.24 0 .347.17.135.17.08.427L25 25.513q-.081.37-.267.568-.161.2-.508.342l-4.49 1.707-.828 4.153h7.75q.294 0 .454.227.16.2.08.513l-.695 3.584a.9.9 0 0 1-.32.54q-.24.2-.508.2zM31.144 52.051q-.9 0-1.494-.252-.594-.261-.9-.675a1.56 1.56 0 0 1-.324-.882q0-.072.054-.126a.2.2 0 0 1 .144-.063h1.134q.126 0 .189.045.072.046.126.117.072.135.198.261.135.126.342.207.216.072.531.072.522 0 .783-.162.27-.162.27-.44a.41.41 0 0 0-.144-.325q-.144-.135-.468-.234a7 7 0 0 0-.846-.216 5.5 5.5 0 0 1-1.17-.369 1.84 1.84 0 0 1-.729-.603q-.252-.378-.252-.936 0-.55.306-.98.315-.433.873-.676t1.323-.243q.621 0 1.089.162.477.162.801.432t.486.576q.171.297.18.585a.2.2 0 0 1-.054.135.18.18 0 0 1-.135.054h-1.188a.4.4 0 0 1-.171-.036.33.33 0 0 1-.126-.117q-.054-.198-.288-.342-.225-.153-.594-.153-.396 0-.621.144-.216.135-.216.423 0 .18.117.315.126.135.405.234.288.099.783.207.819.153 1.323.387.504.225.738.594.234.36.234.91 0 .61-.351 1.061-.342.442-.954.675t-1.404.234M36.779 51.961a2.5 2.5 0 0 1-.999-.18 1.4 1.4 0 0 1-.639-.576q-.225-.396-.225-1.017V48.46h-.702a.25.25 0 0 1-.171-.063.22.22 0 0 1-.063-.162v-.729a.22.22 0 0 1 .063-.162.25.25 0 0 1 .171-.063h.702v-1.485a.22.22 0 0 1 .063-.162.24.24 0 0 1 .162-.063h1.044a.22.22 0 0 1 .162.063.22.22 0 0 1 .063.162v1.485h1.125a.22.22 0 0 1 .162.063.22.22 0 0 1 .063.162v.73a.22.22 0 0 1-.063.161.22.22 0 0 1-.162.063H36.41v1.602q0 .306.117.486t.396.18h.693a.22.22 0 0 1 .162.063.22.22 0 0 1 .063.162v.783a.22.22 0 0 1-.063.162.22.22 0 0 1-.162.063zM39.72 52.051q-.486 0-.873-.18a1.6 1.6 0 0 1-.603-.504 1.2 1.2 0 0 1-.225-.71q0-.64.522-1.009.522-.378 1.386-.513l1.125-.17v-.127q0-.323-.135-.495-.135-.17-.495-.17a.8.8 0 0 0-.414.098.7.7 0 0 0-.243.27.26.26 0 0 1-.225.117h-1.008q-.099 0-.153-.054a.18.18 0 0 1-.045-.144.8.8 0 0 1 .117-.369q.126-.216.378-.423t.648-.342.954-.135q.585 0 1 .135.413.135.665.378.261.243.387.576.126.324.126.72v2.736q0 .099-.072.162a.2.2 0 0 1-.153.063H41.34a.22.22 0 0 1-.162-.063.22.22 0 0 1-.063-.162v-.315a1.3 1.3 0 0 1-.315.315 1.5 1.5 0 0 1-.468.225q-.261.09-.612.09m.423-1.026q.261 0 .468-.108a.8.8 0 0 0 .333-.35 1.3 1.3 0 0 0 .126-.604v-.126l-.765.135q-.423.072-.62.225-.19.144-.19.342 0 .154.09.261.09.109.234.171a.9.9 0 0 0 .324.054M45.714 51.961a2.5 2.5 0 0 1-1-.18 1.4 1.4 0 0 1-.638-.576q-.225-.396-.225-1.017V48.46h-.702a.25.25 0 0 1-.171-.063.22.22 0 0 1-.063-.162v-.729a.22.22 0 0 1 .063-.162.25.25 0 0 1 .17-.063h.703v-1.485a.22.22 0 0 1 .063-.162.24.24 0 0 1 .162-.063h1.044a.22.22 0 0 1 .162.063.22.22 0 0 1 .063.162v1.485h1.125a.22.22 0 0 1 .162.063.22.22 0 0 1 .063.162v.73a.22.22 0 0 1-.063.161.22.22 0 0 1-.162.063h-1.125v1.602q0 .306.117.486t.396.18h.693a.22.22 0 0 1 .162.063.22.22 0 0 1 .063.162v.783a.22.22 0 0 1-.063.162.22.22 0 0 1-.162.063zM49.41 52.051q-1.06 0-1.691-.576-.63-.576-.657-1.71v-.315q.027-.711.315-1.215.297-.513.81-.774.522-.27 1.215-.27.792 0 1.305.315.522.315.783.855.26.54.26 1.233v.216q0 .099-.071.162a.2.2 0 0 1-.153.063h-2.88v.063q.009.261.09.477a.679.679 0 0 0 .666.468.7.7 0 0 0 .297-.054 1 1 0 0 0 .207-.135 2 2 0 0 0 .126-.135.4.4 0 0 1 .126-.108.4.4 0 0 1 .162-.027h1.116q.09 0 .144.054.063.045.054.135-.009.153-.153.37a1.9 1.9 0 0 1-.423.431q-.27.207-.684.342a3.1 3.1 0 0 1-.963.135m-.764-2.907h1.52v-.018q0-.288-.09-.504a.66.66 0 0 0-.26-.333.7.7 0 0 0-.414-.117q-.243 0-.414.117a.76.76 0 0 0-.252.333q-.09.216-.09.504zM56.185 52.051q-.756 0-1.278-.243a1.83 1.83 0 0 1-.792-.693 2.4 2.4 0 0 1-.306-1.089 8 8 0 0 1 0-.81q.036-.639.324-1.089t.8-.693q.523-.243 1.252-.243.738 0 1.25.243.523.243.81.693t.325 1.09q.009.17.009.404 0 .225-.01.405-.035.63-.314 1.09-.27.45-.792.692-.513.243-1.278.243m0-1.098q.405 0 .585-.243.189-.243.216-.729.009-.135.009-.36t-.01-.36q-.027-.477-.215-.72-.18-.252-.585-.252-.397 0-.585.252-.189.243-.207.72-.01.135-.01.36t.01.36q.017.486.207.73.188.242.585.242M59.906 51.961a.24.24 0 0 1-.162-.063.22.22 0 0 1-.063-.162V48.46h-.684a.22.22 0 0 1-.162-.063.22.22 0 0 1-.063-.162v-.729a.22.22 0 0 1 .063-.162.22.22 0 0 1 .162-.063h.684v-.288q0-.612.234-.98.243-.38.684-.54.441-.172 1.053-.172h.702q.09 0 .153.063a.2.2 0 0 1 .072.162v.73q0 .098-.072.161a.2.2 0 0 1-.153.063h-.63q-.306 0-.432.144-.117.144-.117.414v.243h1.089q.09 0 .153.063a.2.2 0 0 1 .072.162v.73q0 .098-.072.161a.2.2 0 0 1-.153.063h-1.09v3.276a.22.22 0 0 1-.062.162.22.22 0 0 1-.162.063zM66.54 51.961a2.5 2.5 0 0 1-.998-.18 1.4 1.4 0 0 1-.64-.576q-.225-.396-.224-1.017V48.46h-.702a.25.25 0 0 1-.171-.063.22.22 0 0 1-.063-.162v-.729a.22.22 0 0 1 .063-.162.25.25 0 0 1 .17-.063h.703v-1.485a.22.22 0 0 1 .063-.162.24.24 0 0 1 .162-.063h1.044a.22.22 0 0 1 .162.063.22.22 0 0 1 .063.162v1.485h1.125a.22.22 0 0 1 .162.063.22.22 0 0 1 .063.162v.73a.22.22 0 0 1-.063.161.22.22 0 0 1-.162.063h-1.125v1.602q0 .306.117.486t.396.18h.693a.22.22 0 0 1 .162.063.22.22 0 0 1 .063.162v.783a.22.22 0 0 1-.063.162.22.22 0 0 1-.162.063zM68.303 51.961a.22.22 0 0 1-.162-.063.22.22 0 0 1-.063-.162v-5.94a.22.22 0 0 1 .063-.162.22.22 0 0 1 .162-.063h1.152a.22.22 0 0 1 .162.063.22.22 0 0 1 .063.162v2.007q.243-.28.594-.44.36-.172.828-.172.522 0 .927.234.414.234.648.693.234.45.234 1.107v2.511a.22.22 0 0 1-.063.162.22.22 0 0 1-.162.063h-1.16a.24.24 0 0 1-.163-.063.22.22 0 0 1-.063-.162V49.28q0-.423-.207-.648-.198-.234-.594-.234a.79.79 0 0 0-.594.234q-.225.225-.225.648v2.457a.22.22 0 0 1-.063.162.22.22 0 0 1-.162.063zM75.822 52.051q-1.062 0-1.692-.576t-.657-1.71v-.315q.027-.711.315-1.215.297-.513.81-.774.522-.27 1.215-.27.792 0 1.305.315.522.315.783.855.26.54.26 1.233v.216q0 .099-.071.162a.2.2 0 0 1-.153.063h-2.88v.063q.009.261.09.477a.679.679 0 0 0 .666.468.7.7 0 0 0 .297-.054 1 1 0 0 0 .207-.135 2 2 0 0 0 .126-.135.4.4 0 0 1 .126-.108.4.4 0 0 1 .162-.027h1.116q.09 0 .144.054.063.045.054.135-.009.153-.153.37a1.9 1.9 0 0 1-.423.431q-.27.207-.684.342a3.1 3.1 0 0 1-.963.135m-.765-2.907h1.52v-.018q0-.288-.09-.504a.66.66 0 0 0-.26-.333.7.7 0 0 0-.414-.117q-.243 0-.414.117a.76.76 0 0 0-.252.333q-.09.216-.09.504zM80.705 51.961a.24.24 0 0 1-.162-.063.22.22 0 0 1-.063-.162v-5.85a.22.22 0 0 1 .063-.162.24.24 0 0 1 .162-.063h.972q.144 0 .216.081a.4.4 0 0 1 .1.117l1.583 2.844 1.584-2.844a1 1 0 0 1 .09-.117q.072-.08.225-.08h.963a.22.22 0 0 1 .162.062.2.2 0 0 1 .072.162v5.85q0 .099-.072.162a.22.22 0 0 1-.162.063h-1.07a.25.25 0 0 1-.172-.063.22.22 0 0 1-.063-.162v-3.375l-1.017 1.881a.4.4 0 0 1-.108.144.3.3 0 0 1-.198.063h-.468a.3.3 0 0 1-.198-.063.5.5 0 0 1-.117-.144l-1.017-1.88v3.374a.22.22 0 0 1-.063.162.22.22 0 0 1-.162.063zM88.96 52.051q-.486 0-.873-.18a1.6 1.6 0 0 1-.603-.504 1.2 1.2 0 0 1-.225-.71q0-.64.522-1.009.522-.378 1.386-.513l1.125-.17v-.127q0-.323-.135-.495-.135-.17-.495-.17a.8.8 0 0 0-.414.098.7.7 0 0 0-.243.27.26.26 0 0 1-.225.117h-1.008q-.099 0-.153-.054a.18.18 0 0 1-.045-.144.8.8 0 0 1 .117-.369q.126-.216.378-.423t.648-.342.954-.135q.585 0 .999.135t.666.378q.261.243.387.576.126.324.126.72v2.736q0 .099-.072.162a.2.2 0 0 1-.153.063H90.58a.22.22 0 0 1-.162-.063.22.22 0 0 1-.063-.162v-.315a1.3 1.3 0 0 1-.315.315 1.5 1.5 0 0 1-.468.225q-.261.09-.612.09m.423-1.026q.261 0 .468-.108a.8.8 0 0 0 .333-.35 1.3 1.3 0 0 0 .126-.604v-.126l-.765.135q-.424.072-.621.225-.19.144-.19.342 0 .154.09.261.09.109.235.171a.9.9 0 0 0 .324.054M92.82 53.671a.22.22 0 0 1-.163-.063.22.22 0 0 1-.063-.162v-5.94a.22.22 0 0 1 .063-.162.22.22 0 0 1 .162-.063h1.017q.09 0 .153.063a.2.2 0 0 1 .072.162v.333q.207-.279.55-.459.341-.189.845-.189.45 0 .792.144.342.135.585.405t.378.657q.144.387.162.891a7 7 0 0 1 0 .666 3 3 0 0 1-.153.873q-.135.387-.378.657t-.594.423a2 2 0 0 1-.792.144q-.441 0-.774-.153a1.5 1.5 0 0 1-.54-.45v1.998a.22.22 0 0 1-.063.162.22.22 0 0 1-.162.063zm2.15-2.826q.306 0 .477-.126a.68.68 0 0 0 .243-.342q.08-.216.1-.477a4 4 0 0 0 0-.558 1.7 1.7 0 0 0-.1-.477.68.68 0 0 0-.243-.342q-.171-.126-.477-.126-.297 0-.477.135a.7.7 0 0 0-.26.333 1.4 1.4 0 0 0-.09.45 6 6 0 0 0 0 .675q.008.225.098.423a.8.8 0 0 0 .27.315q.18.117.46.117M29.02 59.961a.22.22 0 0 1-.162-.063.22.22 0 0 1-.063-.162v-5.85a.22.22 0 0 1 .063-.162.22.22 0 0 1 .162-.063h4.203a.22.22 0 0 1 .162.063.22.22 0 0 1 .063.162v.846a.22.22 0 0 1-.063.162.22.22 0 0 1-.162.063h-2.871v1.215h2.673q.099 0 .162.072a.22.22 0 0 1 .063.162v.783a.24.24 0 0 1-.063.162.22.22 0 0 1-.162.063h-2.673v1.251h2.943a.22.22 0 0 1 .162.063.22.22 0 0 1 .063.162v.846a.22.22 0 0 1-.063.162.22.22 0 0 1-.162.063zM35.867 60.051q-.513 0-.918-.234a1.6 1.6 0 0 1-.621-.684q-.225-.459-.225-1.116v-2.51a.22.22 0 0 1 .063-.163.22.22 0 0 1 .162-.063h1.125a.22.22 0 0 1 .162.063.22.22 0 0 1 .063.162v2.457q0 .882.792.882.368 0 .585-.225.225-.234.225-.657v-2.457a.22.22 0 0 1 .063-.162.22.22 0 0 1 .162-.063h1.125a.22.22 0 0 1 .162.063.22.22 0 0 1 .063.162v4.23a.22.22 0 0 1-.063.162.22.22 0 0 1-.162.063h-1.044a.24.24 0 0 1-.162-.063.22.22 0 0 1-.063-.162v-.342q-.234.324-.612.495-.369.162-.882.162M39.868 59.961a.22.22 0 0 1-.162-.063.22.22 0 0 1-.063-.162v-4.23q0-.09.063-.153a.2.2 0 0 1 .162-.072h1.035q.099 0 .162.072a.2.2 0 0 1 .063.153v.36q.243-.279.576-.432.342-.153.765-.153h.396q.09 0 .153.063a.2.2 0 0 1 .072.162v.927q0 .09-.072.162a.2.2 0 0 1-.153.063h-.873q-.369 0-.576.207-.198.198-.198.567v2.304q0 .099-.072.162a.22.22 0 0 1-.162.063zM45.64 60.051q-.757 0-1.279-.243a1.83 1.83 0 0 1-.792-.693 2.4 2.4 0 0 1-.306-1.089 8 8 0 0 1 0-.81q.036-.639.324-1.089t.801-.693q.522-.243 1.251-.243.739 0 1.251.243.522.243.81.693t.324 1.09q.01.17.01.404 0 .225-.01.405-.036.63-.315 1.09-.27.45-.792.692-.513.243-1.278.243m0-1.098q.405 0 .584-.243.189-.243.216-.729.01-.135.01-.36t-.01-.36q-.027-.477-.216-.72-.18-.252-.585-.252-.396 0-.585.252-.189.243-.207.72-.009.135-.009.36t.01.36q.017.486.206.73.189.242.585.242M48.873 61.671a.22.22 0 0 1-.162-.063.22.22 0 0 1-.063-.162v-5.94a.22.22 0 0 1 .063-.162.22.22 0 0 1 .162-.063h1.017q.09 0 .153.063a.2.2 0 0 1 .072.162v.333q.207-.279.55-.459.341-.189.845-.189.45 0 .792.144.342.135.585.405t.378.657q.144.387.162.891a7 7 0 0 1 0 .666 3 3 0 0 1-.153.873q-.135.387-.378.657t-.594.423a2 2 0 0 1-.792.144q-.441 0-.774-.153a1.5 1.5 0 0 1-.54-.45v1.998a.22.22 0 0 1-.063.162.22.22 0 0 1-.162.063zm2.151-2.826q.306 0 .477-.126a.68.68 0 0 0 .243-.342q.08-.216.1-.477a4 4 0 0 0 0-.558 1.7 1.7 0 0 0-.1-.477.68.68 0 0 0-.243-.342q-.171-.126-.477-.126-.297 0-.477.135a.7.7 0 0 0-.26.333 1.4 1.4 0 0 0-.09.45 6 6 0 0 0 0 .675q.008.225.098.423a.8.8 0 0 0 .27.315q.18.117.46.117M56.216 60.051q-1.062 0-1.692-.576t-.657-1.71v-.315q.027-.711.315-1.215.297-.513.81-.774.522-.27 1.215-.27.792 0 1.305.315.522.315.783.855t.261 1.233v.216q0 .099-.072.162a.2.2 0 0 1-.153.063h-2.88v.063q.009.261.09.477a.679.679 0 0 0 .666.468.7.7 0 0 0 .297-.054 1 1 0 0 0 .207-.135 2 2 0 0 0 .126-.135.4.4 0 0 1 .126-.108.4.4 0 0 1 .162-.027h1.116q.09 0 .144.054.063.045.054.135-.009.153-.153.37a1.9 1.9 0 0 1-.423.431q-.27.207-.684.342a3.1 3.1 0 0 1-.963.135m-.765-2.907h1.521v-.018q0-.288-.09-.504a.66.66 0 0 0-.261-.333.7.7 0 0 0-.414-.117q-.243 0-.414.117a.76.76 0 0 0-.252.333q-.09.216-.09.504zM60.848 59.961a.25.25 0 0 1-.171-.063.22.22 0 0 1-.063-.162v-.639q0-.063.036-.189a.5.5 0 0 1 .189-.252l.936-.918q.72-.549 1.179-.927.468-.387.693-.684t.225-.558a.77.77 0 0 0-.162-.504q-.153-.207-.54-.207a.8.8 0 0 0-.441.117.7.7 0 0 0-.261.288q-.09.18-.126.37a.25.25 0 0 1-.126.161.36.36 0 0 1-.18.045H60.91a.183.183 0 0 1-.19-.189q.01-.432.18-.81.18-.378.496-.666.323-.296.765-.459a3 3 0 0 1 1.008-.162q.765 0 1.296.243.54.243.819.684.279.432.279 1.017 0 .441-.198.828a2.7 2.7 0 0 1-.55.73 9 9 0 0 1-.836.71l-.828.837h2.313a.22.22 0 0 1 .162.063.2.2 0 0 1 .072.162v.91q0 .098-.072.161a.22.22 0 0 1-.162.063zM68.88 60.051q-.65 0-1.126-.18a2.2 2.2 0 0 1-.792-.513 2.2 2.2 0 0 1-.468-.756 3.1 3.1 0 0 1-.189-.927l-.018-.549v-.63l.018-.576a3 3 0 0 1 .19-.918q.17-.432.485-.747a2.2 2.2 0 0 1 .792-.504q.477-.18 1.107-.18.639 0 1.107.18t.783.504q.324.316.495.747.17.423.19.918.017.252.017.576.009.315 0 .63a8 8 0 0 1-.018.55q-.018.494-.189.926a2.16 2.16 0 0 1-1.26 1.27q-.468.18-1.125.18m0-1.305q.467 0 .674-.297.217-.306.225-.819a8 8 0 0 0 .018-.549 9 9 0 0 0 0-.576q0-.288-.018-.53-.008-.495-.225-.802-.207-.306-.675-.315-.468.009-.675.315t-.225.801l-.018.531v.576l.018.55q.018.512.234.818.216.297.666.297M72.279 59.961a.25.25 0 0 1-.171-.063.22.22 0 0 1-.064-.162v-.639q0-.063.037-.189a.5.5 0 0 1 .188-.252l.936-.918q.72-.549 1.18-.927.467-.387.692-.684t.225-.558a.77.77 0 0 0-.162-.504q-.152-.207-.54-.207a.8.8 0 0 0-.44.117.7.7 0 0 0-.261.288q-.09.18-.127.37a.25.25 0 0 1-.126.161.36.36 0 0 1-.18.045h-1.124a.183.183 0 0 1-.19-.189q.01-.432.18-.81.18-.378.496-.666.323-.296.764-.459a3 3 0 0 1 1.008-.162q.766 0 1.297.243.54.243.819.684.279.432.279 1.017 0 .441-.199.828a2.7 2.7 0 0 1-.549.73 9 9 0 0 1-.837.71l-.828.837h2.314a.22.22 0 0 1 .162.063.2.2 0 0 1 .071.162v.91q0 .098-.072.161a.22.22 0 0 1-.162.063zM80.725 59.961a.24.24 0 0 1-.162-.063.22.22 0 0 1-.063-.162V58.72h-2.8a.24.24 0 0 1-.161-.063.22.22 0 0 1-.063-.162v-.855q0-.081.027-.144.036-.072.072-.135l2.619-3.546a.4.4 0 0 1 .333-.153h1.305a.22.22 0 0 1 .162.063.2.2 0 0 1 .072.162v3.492h.792q.108 0 .17.072a.2.2 0 0 1 .064.153v.891q0 .099-.072.162a.2.2 0 0 1-.153.063h-.801v1.017q0 .099-.072.162a.22.22 0 0 1-.162.063zm-1.701-2.52h1.512v-2.124z"/><defs><linearGradient id="a" x1="4.165" x2="108.666" y1="61.671" y2="32.46" gradientUnits="userSpaceOnUse"><stop stop-color="#FF5B26"/><stop offset="1" stop-color="#FFC000"/></linearGradient></defs></svg>